<?xml version="1.0" encoding="utf-8"?>
<?xml-stylesheet type="text/xsl" href="rss1.xsl"?>
<rss version="2.0" xmlns:atom="http://www.w3.org/2005/Atom" xmlns:content="http://purl.org/rss/1.0/modules/content/" xmlns:dc="http://purl.org/dc/elements/1.1/" xmlns:media="http://search.yahoo.com/mrss/">
<channel>
 <title>Getty</title>
 <link>http://www.gettyimg.com/</link>
 <atom:link href="http://www.gettyimg.com/" rel="self" type="application/rss+xml" />

 
                <item>
                <title><![CDATA[【Cinema Center】WEB-DL - Scream 2 1997 1080p HMAX WEB-DL DD5.1.H.264 DUAL-SiGLA]]></title>
                <link><![CDATA[https://sharemania.us/threads/scream-2-1997-1080p-hmax-web-dl-dd5-1-h-264-dual-sigla.243574/]]></link>
                <description><![CDATA[<article>
<blockquote class="messageText SelectQuoteContainer ugc baseHtml">
<div style="text-align: center"><img src="https://i.ibb.co/PWBN2JD/m5-Hr-Jl9-JH8yyt1a9q1-XKk6bq79v.jpg" class="bbCodeImage LbImage" alt="[​IMG]" data-url="https://i.ibb.co/PWBN2JD/m5-Hr-Jl9-JH8yyt1a9q1-XKk6bq79v.jpg" style=""><br>
<br>
<a href="https://ibb.co/9r0kNkJ" target="_blank" class="externalLink" rel="nofollow"><img src="https://i.ibb.co/9r0kNkJ/Panico-2-1997-1080p-HMAX-WEB-DL-DD5-1-x264-Si-GLA-mkv-snapshot-00-17-54-139.png" class="bbCodeImage LbImage" alt="[​IMG]" data-url="https://i.ibb.co/9r0kNkJ/Panico-2-1997-1080p-HMAX-WEB-DL-DD5-1-x264-Si-GLA-mkv-snapshot-00-17-54-139.png"></a> <a href="https://ibb.co/P50Pcrp" target="_blank" class="externalLink" rel="nofollow"><img src="https://i.ibb.co/P50Pcrp/Panico-2-1997-1080p-HMAX-WEB-DL-DD5-1-x264-Si-GLA-mkv-snapshot-00-12-26-190.png" class="bbCodeImage LbImage" alt="[​IMG]" data-url="https://i.ibb.co/P50Pcrp/Panico-2-1997-1080p-HMAX-WEB-DL-DD5-1-x264-Si-GLA-mkv-snapshot-00-12-26-190.png"></a> <a href="https://ibb.co/y4fmJJ5" target="_blank" class="externalLink" rel="nofollow"><img src="https://i.ibb.co/y4fmJJ5/Panico-2-1997-1080p-HMAX-WEB-DL-DD5-1-x264-Si-GLA-mkv-snapshot-00-02-36-803.png" class="bbCodeImage LbImage" alt="[​IMG]" data-url="https://i.ibb.co/y4fmJJ5/Panico-2-1997-1080p-HMAX-WEB-DL-DD5-1-x264-Si-GLA-mkv-snapshot-00-02-36-803.png"></a> <a href="https://ibb.co/FW3bHFj" target="_blank" class="externalLink" rel="nofollow"><img src="https://i.ibb.co/FW3bHFj/Panico-2-1997-1080p-HMAX-WEB-DL-DD5-1-x264-Si-GLA-mkv-snapshot-00-00-31-923.png" class="bbCodeImage LbImage" alt="[​IMG]" data-url="https://i.ibb.co/FW3bHFj/Panico-2-1997-1080p-HMAX-WEB-DL-DD5-1-x264-Si-GLA-mkv-snapshot-00-00-31-923.png"></a> <a href="https://ibb.co/cN7275C" target="_blank" class="externalLink" rel="nofollow"><img src="https://i.ibb.co/cN7275C/Panico-2-1997-1080p-HMAX-WEB-DL-DD5-1-x264-Si-GLA-mkv-snapshot-01-43-30-365.png" class="bbCodeImage LbImage" alt="[​IMG]" data-url="https://i.ibb.co/cN7275C/Panico-2-1997-1080p-HMAX-WEB-DL-DD5-1-x264-Si-GLA-mkv-snapshot-01-43-30-365.png"></a> <a href="https://ibb.co/TMH3X86" target="_blank" class="externalLink" rel="nofollow"><img src="https://i.ibb.co/TMH3X86/Panico-2-1997-1080p-HMAX-WEB-DL-DD5-1-x264-Si-GLA-mkv-snapshot-01-08-44-748.png" class="bbCodeImage LbImage" alt="[​IMG]" data-url="https://i.ibb.co/TMH3X86/Panico-2-1997-1080p-HMAX-WEB-DL-DD5-1-x264-Si-GLA-mkv-snapshot-01-08-44-748.png"></a> <a href="https://ibb.co/82r39fc" target="_blank" class="externalLink" rel="nofollow"><img src="https://i.ibb.co/82r39fc/Panico-2-1997-1080p-HMAX-WEB-DL-DD5-1-x264-Si-GLA-mkv-snapshot-00-55-55-352.png" class="bbCodeImage LbImage" alt="[​IMG]" data-url="https://i.ibb.co/82r39fc/Panico-2-1997-1080p-HMAX-WEB-DL-DD5-1-x264-Si-GLA-mkv-snapshot-00-55-55-352.png"></a> <a href="https://ibb.co/rdQzyfc" target="_blank" class="externalLink" rel="nofollow"><img src="https://i.ibb.co/rdQzyfc/Panico-2-1997-1080p-HMAX-WEB-DL-DD5-1-x264-Si-GLA-mkv-snapshot-00-53-51-228.png" class="bbCodeImage LbImage" alt="[​IMG]" data-url="https://i.ibb.co/rdQzyfc/Panico-2-1997-1080p-HMAX-WEB-DL-DD5-1-x264-Si-GLA-mkv-snapshot-00-53-51-228.png"></a> <a href="https://ibb.co/XjnBGqg" target="_blank" class="externalLink" rel="nofollow"><img src="https://i.ibb.co/XjnBGqg/Panico-2-1997-1080p-HMAX-WEB-DL-DD5-1-x264-Si-GLA-mkv-snapshot-00-53-31-208.png" class="bbCodeImage LbImage" alt="[​IMG]" data-url="https://i.ibb.co/XjnBGqg/Panico-2-1997-1080p-HMAX-WEB-DL-DD5-1-x264-Si-GLA-mkv-snapshot-00-53-31-208.png"></a>​</div><br>
<br>
<span style="font-size: 15px"><i>Someone has taken their love of sequels one step too far</i><b>.</b><br>
<b>Sinopse</b></span><br>
Away at college, Sidney Prescott thought she'd finally put the shocking murders that shattered her life behind her... until a copycat killer begins acting out a real-life sequel.<br>
<br>
<br>
<div style="text-align: center"><span data-s9e-mediaembed="youtube" style="display:inline-block;width:100%;max-width:640px"><span style="display:block;overflow:hidden;position:relative;padding-bottom:56.25%"><iframe allowfullscreen="" loading="lazy" scrolling="no" style="background:url(https://i.ytimg.com/vi/QXjofSo5Je0/hqdefault.jpg) 50% 50% / cover;border:0;height:100%;left:0;position:absolute;width:100%" src="https://www.youtube.com/embed/QXjofSo5Je0"></iframe></span></span>​</div><br>
<div style="text-align: left">
<div class="bbCodeBlock bbCodeCode">
<div class="type">Code:</div>
<pre>General
Unique ID                      : 84360287839880498348926174960948718473 (0x3F7733507B2E151C89AA7FBE7265AB89)
Complete name                  : C:\Users\User\Videos\Panico 1996-2023\Panico.2.1997.1080p.HMAX.WEB-DL.DD5.1.x264-SiGLA.mkv
Format                         : Matroska
Format version                 : Version 4
File size                      : 7.61 GiB
Duration                       : 2 h 0 min
Overall bit rate mode          : Variable
Overall bit rate               : 9 019 kb/s
Frame rate                     : 29.970 FPS
Movie name                     : Pânico 2 (1997)
Writing application            : mkvmerge v69.0.0 ('SiGLA') 64-bit
Writing library                : libebml v1.4.2 + libmatroska v1.6.4

Video
ID                             : 1
Format                         : AVC
Format/Info                    : Advanced Video Codec
Format profile                 : High@L4
Format settings                : CABAC / 4 Ref Frames
Format settings, CABAC         : Yes
Format settings, Reference fra : 4 frames
Codec ID                       : V_MPEG4/ISO/AVC
Duration                       : 2 h 0 min
Bit rate mode                  : Variable
Bit rate                       : 8 250 kb/s
Maximum bit rate               : 12.4 Mb/s
Width                          : 1 920 pixels
Height                         : 1 080 pixels
Display aspect ratio           : 16:9
Frame rate mode                : Constant
Frame rate                     : 29.970 (30000/1001) FPS
Color space                    : YUV
Chroma subsampling             : 4:2:0
Bit depth                      : 8 bits
Scan type                      : Progressive
Bits/(Pixel*Frame)             : 0.133
Stream size                    : 6.96 GiB (91%)
Writing library                : x264 core 157 r2965 861cec4
Encoding settings              : cabac=1 / ref=4 / deblock=1:0:0 / analyse=0x3:0x113 / me=hex / subme=7 / psy=1 / psy_rd=1.00:0.00 / mixed_ref=1 / me_range=16 / chroma_me=1 / trellis=1 / 8x8dct=1 / cqm=0 / deadzone=21,11 / fast_pskip=1 / chroma_qp_offset=-2 / threads=34 / lookahead_threads=5 / sliced_threads=0 / nr=0 / decimate=1 / interlaced=0 / bluray_compat=0 / constrained_intra=0 / bframes=3 / b_pyramid=2 / b_adapt=1 / b_bias=0 / direct=1 / weightb=1 / open_gop=0 / weightp=2 / keyint=120 / keyint_min=120 / scenecut=40 / intra_refresh=0 / rc_lookahead=40 / rc=2pass / mbtree=1 / bitrate=8250 / ratetol=1.0 / qcomp=0.60 / qpmin=0 / qpmax=69 / qpstep=4 / cplxblur=20.0 / qblur=0.5 / vbv_maxrate=12375 / vbv_bufsize=6187 / nal_hrd=vbr / filler=0 / ip_ratio=1.40 / aq=1:1.00
Default                        : Yes
Forced                         : No
Color range                    : Limited
Color primaries                : BT.709
Transfer characteristics       : BT.709
Matrix coefficients            : BT.709

Audio #1
ID                             : 2
Format                         : AC-3
Format/Info                    : Audio Coding 3
Commercial name                : Dolby Digital
Codec ID                       : A_AC3
Duration                       : 2 h 0 min
Bit rate mode                  : Constant
Bit rate                       : 384 kb/s
Channel(s)                     : 2 channels
Channel layout                 : L R
Sampling rate                  : 48.0 kHz
Frame rate                     : 31.250 FPS (1536 SPF)
Compression mode               : Lossy
Stream size                    : 332 MiB (4%)
Title                          : Brazilian
Language                       : Portuguese (BR)
Service kind                   : Complete Main
Default                        : Yes
Forced                         : No

Audio #2
ID                             : 3
Format                         : AC-3
Format/Info                    : Audio Coding 3
Commercial name                : Dolby Digital
Codec ID                       : A_AC3
Duration                       : 2 h 0 min
Bit rate mode                  : Constant
Bit rate                       : 384 kb/s
Channel(s)                     : 6 channels
Channel layout                 : L R C LFE Ls Rs
Sampling rate                  : 48.0 kHz
Frame rate                     : 31.250 FPS (1536 SPF)
Compression mode               : Lossy
Stream size                    : 332 MiB (4%)
Language                       : English (US)
Service kind                   : Complete Main
Default                        : No
Forced                         : No
AC3_metadata cmixlev           : -3.0 dB
 surmixlev                     : -3 dB

Text #1
ID                             : 4
Format                         : UTF-8
Codec ID                       : S_TEXT/UTF8
Codec ID/Info                  : UTF-8 Plain Text
Duration                       : 1 h 57 min
Bit rate                       : 1 b/s
Frame rate                     : 0.005 FPS
Count of elements              : 37
Stream size                    : 1 023 Bytes (0%)
Title                          : Brazilian (Forced)
Language                       : Portuguese (BR)
Default                        : Yes
Forced                         : Yes

Text #2
ID                             : 5
Format                         : UTF-8
Codec ID                       : S_TEXT/UTF8
Codec ID/Info                  : UTF-8 Plain Text
Duration                       : 1 h 54 min
Bit rate                       : 63 b/s
Frame rate                     : 0.225 FPS
Count of elements              : 1539
Stream size                    : 53.2 KiB (0%)
Title                          : Brazilian
Language                       : Portuguese (BR)
Default                        : No
Forced                         : No

Text #3
ID                             : 6
Format                         : UTF-8
Codec ID                       : S_TEXT/UTF8
Codec ID/Info                  : UTF-8 Plain Text
Duration                       : 1 h 52 min
Bit rate                       : 67 b/s
Frame rate                     : 0.237 FPS
Count of elements              : 1596
Stream size                    : 55.9 KiB (0%)
Title                          : Latin American
Language                       : Spanish (Latin America)
Default                        : No
Forced                         : No

Menu
00:00:00.000                   : en:Chapter 01
01:53:14.000                   : en:Credits


</pre>
</div></div><br>
<div class="bbCodeBlock bbCodeVfcHH HiddenContent">
<div class="attribution type">Hidden Content:</div>
<blockquote>You must either reply or click 'Like' to see the hidden information contained here.</blockquote>
</div>
<div class="messageTextEndMarker">&nbsp;</div>
</blockquote>
</article>]]></description>
                <author><![CDATA[-C.A.A]]></author>
                </item>

                </channel></rss>